<svg width="66" height="52" viewBox="0 0 66 52" fill="none" xmlns="http://www.w3.org/2000/svg">
<path d="M37.0341 1.70032C37.9092 0.825456 39.096 0.333984 40.3334 0.333984C41.5708 0.333984 42.7576 0.825456 43.6327 1.70032L64.6327 22.7003C65.5076 23.5755 65.9991 24.7622 65.9991 25.9997C65.9991 27.2371 65.5076 28.4239 64.6327 29.299L43.6327 50.299C42.7526 51.1491 41.5738 51.6194 40.3502 51.6088C39.1266 51.5982 37.9562 51.1074 37.0909 50.2421C36.2257 49.3769 35.7349 48.2064 35.7243 46.9829C35.7136 45.7593 36.184 44.5805 37.0341 43.7003L49.6667 30.6663H5.33341C4.09574 30.6663 2.90875 30.1747 2.03358 29.2995C1.15841 28.4243 0.666748 27.2373 0.666748 25.9997C0.666748 24.762 1.15841 23.575 2.03358 22.6998C2.90875 21.8247 4.09574 21.333 5.33341 21.333H49.6667L37.0341 8.29899C36.1592 7.42386 35.6677 6.23709 35.6677 4.99965C35.6677 3.76222 36.1592 2.57545 37.0341 1.70032Z" fill="#E78258"/>
</svg>
