<svg width="227" height="195" viewBox="0 0 227 195" fill="none" xmlns="http://www.w3.org/2000/svg">
<g clip-path="url(#clip0_1_6412)">
<path d="M82.3954 59.9064C78.0721 48.4262 67.0386 38.4852 55.1046 35.3128C51.5711 34.3742 47.9043 33.9976 44.7164 34.882C41.2111 35.856 38.5615 38.2577 36.0613 40.6452C31.9335 44.5914 27.9342 48.6646 24.2368 53.0044C19.4525 58.617 15.0688 64.9518 14.2877 72.7171C13.2816 82.7189 18.9769 94.3012 28.2631 101.126C45.4804 113.782 58.9942 105.314 70.8081 96.3765C81.4098 88.3526 88.1469 75.1893 82.3954 59.9064Z" stroke="#2D2D2D" stroke-width="1.59287" stroke-miterlimit="10"/>
<path d="M127.092 54.4847L106.674 142.401L187.067 157.767C190.061 144.876 191.613 136.789 194.606 123.897L206.446 72.9174L127.092 54.4847Z" stroke="#2D2D2D" stroke-width="1.59287" stroke-miterlimit="10"/>
</g>
<defs>
<clipPath id="clip0_1_6412">
<rect width="199.148" height="159.126" fill="white" transform="translate(0.82959 38.3479) rotate(-11.1022)"/>
</clipPath>
</defs>
</svg>
