<svg width="108" height="188" viewBox="0 0 108 188" fill="none" xmlns="http://www.w3.org/2000/svg">
<path d="M-93.7504 79.9058C-82.3389 80.7256 -57.858 79.8393 -46.4464 79.8246C-30.6499 79.8049 -22.5664 82.1362 -13.8281 86.7078C9.28427 98.8001 17.2525 127.32 17.3996 146.18C17.4634 154.412 17.5492 165.185 9.96362 173.4C1.93902 182.095 -13.6417 186.81 -23.7804 181.989C-50.8315 169.134 -49.1123 83.4631 -10.635 39.9975C-5.27135 33.9391 0.528828 28.5994 7.12361 23.8383C34.7413 3.91246 66.4375 5.46833 79.4774 6.69676" stroke="#2D2D2D" stroke-width="1.18478" stroke-miterlimit="10"/>
<path d="M87.0727 15.1801C86.9452 15.7956 86.8863 16.4504 87.1095 17.0412C87.6123 18.3657 89.2726 18.8211 90.7073 18.9417C92.9538 19.1288 95.3082 18.9245 97.2776 17.8462C107.34 12.3343 90.0476 0.842587 87.0752 15.1801H87.0727Z" stroke="#2D2D2D" stroke-width="1.18478" stroke-miterlimit="10"/>
</svg>
