<svg width="55" height="55" viewBox="0 0 55 55" fill="none" xmlns="http://www.w3.org/2000/svg">
<path d="M34.68 17.1875C40.7158 18.3481 36.5275 23.8265 35.3984 31.5436L47.886 34.3096C51.1192 21.275 54.9843 6.843 37.6881 3.71191L34.68 17.1888V17.1875Z" fill="#EF7A4E"/>
<path d="M37.7182 34.4941C36.5576 40.5299 31.0792 36.3416 23.3621 35.2125L20.5961 47.7002C33.6307 50.9333 48.0627 54.7984 51.1938 37.5022L37.7169 34.4941H37.7182Z" fill="#EF7A4E"/>
<path d="M20.4116 37.5311C14.3758 36.3705 18.5641 30.8921 19.6932 23.175L7.20555 20.4089C3.97241 33.4436 0.107294 47.8769 17.4035 51.008L20.4116 37.5311Z" fill="#EF7A4E"/>
<path d="M17.3747 20.2258C18.5353 14.1899 24.0137 18.3782 31.7308 19.5074L34.4968 7.01973C21.4622 3.78659 7.03022 -0.0798268 3.89783 17.2164L17.3747 20.2244V20.2258Z" fill="#EF7A4E"/>
</svg>
